<?xml version="1.0" standalone="no"?>
<!DOCTYPE svg PUBLIC "-//W3C//DTD SVG 20010904//EN"
 "http://www.w3.org/TR/2001/REC-SVG-20010904/DTD/svg10.dtd">
<svg version="1.0" xmlns="http://www.w3.org/2000/svg"
 width="700.000000pt" height="700.000000pt" viewBox="0 0 700.000000 700.000000"
 preserveAspectRatio="xMidYMid meet">
<metadata>
Created by potrace 1.11, written by Peter Selinger 2001-2013
</metadata>
<g transform="translate(0.000000,700.000000) scale(0.100000,-0.100000)"
fill="#000000" stroke="none">
<path d="M3250 6994 c-665 -59 -1238 -263 -1755 -624 -658 -459 -1145 -1144
-1364 -1918 -95 -336 -125 -564 -125 -952 0 -314 9 -417 60 -682 269 -1393
1401 -2508 2804 -2762 371 -67 787 -73 1162 -16 1442 220 2609 1331 2897 2758
55 273 65 380 65 702 0 314 -9 417 -60 682 -166 857 -677 1651 -1396 2164
-479 341 -1020 553 -1608 630 -119 15 -574 27 -680 18z m1940 -2504 c0 -742
-2 -1350 -4 -1350 -2 0 -57 43 -123 96 -112 90 -118 97 -123 137 l-5 42 -53 5
c-51 5 -61 11 -187 114 l-133 108 13 37 c7 21 24 60 38 87 13 27 32 73 41 102
l18 52 134 0 134 0 0 80 0 80 -115 0 -115 0 0 85 0 85 115 0 115 0 0 80 0 80
-125 0 -124 0 -11 43 c-38 148 -150 352 -240 432 l-22 20 258 5 259 5 3 83 3
82 -374 0 -374 0 -76 35 c-131 60 -229 80 -407 80 -128 0 -171 -4 -244 -23
-95 -24 -241 -89 -316 -140 l-45 -31 -3 204 -2 205 -145 0 -145 0 0 -335 0
-335 26 0 c14 0 24 -3 22 -7 -2 -5 -19 -39 -39 -78 -39 -75 -62 -135 -79 -202
l-11 -43 -344 0 -345 0 0 -80 0 -80 335 0 335 0 0 -85 0 -85 -335 0 -335 0 0
-80 0 -80 353 0 352 0 27 -67 c105 -270 142 -343 225 -445 124 -153 316 -268
518 -311 l70 -15 -212 -1 -213 -1 0 -80 0 -80 764 0 764 0 251 -202 251 -203
0 -687 0 -688 -1690 0 -1690 0 0 2350 0 2350 1690 0 1690 0 0 -1350z m-849
-1282 c24 -24 67 -62 94 -85 l50 -42 -330 1 c-196 0 -311 4 -283 8 25 5 73 16
105 25 65 19 237 101 254 121 22 27 64 16 110 -28z"/>
<path d="M2430 5190 l0 -450 145 0 145 0 0 450 0 450 -145 0 -145 0 0 -450z"/>
<path d="M3830 5330 l0 -80 555 0 555 0 0 80 0 80 -555 0 -555 0 0 -80z"/>
<path d="M2040 4970 l0 -230 145 0 145 0 0 230 0 230 -145 0 -145 0 0 -230z"/>
<path d="M2384 3570 c-82 -27 -148 -74 -207 -145 -70 -87 -91 -148 -91 -270
-1 -116 14 -171 72 -255 170 -246 533 -253 714 -15 64 84 82 144 82 265 0 85
-4 115 -22 160 -44 111 -142 209 -252 252 -80 31 -215 35 -296 8z"/>
<path d="M2044 2407 c-3 -8 -4 -45 -2 -83 l3 -69 1445 0 1445 0 3 83 3 82
-1446 0 c-1204 0 -1446 -2 -1451 -13z"/>
<path d="M2044 2077 c-3 -8 -4 -45 -2 -83 l3 -69 1448 -3 1448 -2 -3 82 -3 83
-1443 3 c-1205 2 -1443 0 -1448 -11z"/>
<path d="M2040 1670 l0 -80 1450 0 1450 0 0 80 0 80 -1450 0 -1450 0 0 -80z"/>
</g>
</svg>
